<svg width="183" height="100" viewBox="0 0 183 100" fill="none" xmlns="http://www.w3.org/2000/svg">
<path d="M17.6629 7.93518C2.21655 26.715 -2.06613 52.9994 9.84623 74.7511C19.8159 92.9555 47.9784 96.6787 67.8428 96.9808C92.6137 97.3575 117.72 92.1679 140.635 83.8076C158.376 77.3354 177.61 67.9607 179.858 48.848C180.955 39.5219 175.599 31.4938 167.226 26.4283C151.476 16.8999 129.22 12.4528 111.253 7.74519C99.2253 4.59378 76.2609 -2.76677 70.4251 11.3551" stroke="#D4C860" stroke-width="5" stroke-linecap="round"/>
<path d="M10.8 71L26.01 24.2H35.7925L51.0025 71H43.95L29.9425 28.295H31.6975L17.8525 71H10.8ZM18.6975 60.4375V54.0675H43.1375V60.4375H18.6975ZM57.4832 30.1475V23.55H64.2757V30.1475H57.4832ZM57.4832 71V35.9H64.2757V71H57.4832ZM83.9479 71L70.3629 24.2H77.4804L87.3279 59.5925L97.1754 24.2325L104.325 24.2L114.173 59.5925L124.02 24.2H131.17L117.553 71H110.793L100.75 35.9975L90.7079 71H83.9479ZM143.616 71.975C141.016 71.975 138.838 71.4983 137.083 70.545C135.328 69.57 133.996 68.2917 133.086 66.71C132.197 65.1067 131.753 63.3517 131.753 61.445C131.753 59.6683 132.067 58.1083 132.696 56.765C133.324 55.4217 134.256 54.2842 135.491 53.3525C136.726 52.3992 138.242 51.63 140.041 51.045C141.601 50.59 143.367 50.1892 145.338 49.8425C147.31 49.4958 149.379 49.1708 151.546 48.8675C153.734 48.5642 155.901 48.2608 158.046 47.9575L155.576 49.3225C155.619 46.5708 155.034 44.5342 153.821 43.2125C152.629 41.8692 150.571 41.1975 147.646 41.1975C145.804 41.1975 144.114 41.6308 142.576 42.4975C141.037 43.3425 139.965 44.7508 139.358 46.7225L133.021 44.7725C133.887 41.7608 135.534 39.3667 137.961 37.59C140.409 35.8133 143.659 34.925 147.711 34.925C150.852 34.925 153.582 35.4667 155.901 36.55C158.241 37.6117 159.952 39.3017 161.036 41.62C161.599 42.7683 161.946 43.9817 162.076 45.26C162.206 46.5383 162.271 47.9142 162.271 49.3875V71H156.258V62.9725L157.428 64.0125C155.977 66.6992 154.124 68.7033 151.871 70.025C149.639 71.325 146.887 71.975 143.616 71.975ZM144.818 66.4175C146.747 66.4175 148.404 66.0817 149.791 65.41C151.177 64.7167 152.293 63.8392 153.138 62.7775C153.983 61.7158 154.536 60.6108 154.796 59.4625C155.164 58.4225 155.37 57.2525 155.413 55.9525C155.478 54.6525 155.511 53.6125 155.511 52.8325L157.721 53.645C155.576 53.97 153.626 54.2625 151.871 54.5225C150.116 54.7825 148.523 55.0425 147.093 55.3025C145.685 55.5408 144.428 55.8333 143.323 56.18C142.392 56.505 141.557 56.895 140.821 57.35C140.106 57.805 139.532 58.3575 139.098 59.0075C138.687 59.6575 138.481 60.4483 138.481 61.38C138.481 62.29 138.708 63.135 139.163 63.915C139.618 64.6733 140.312 65.28 141.243 65.735C142.175 66.19 143.367 66.4175 144.818 66.4175Z" fill="#D4C860"/>
</svg>
