<svg width="411" height="2807" viewBox="0 0 411 2807" fill="none" xmlns="http://www.w3.org/2000/svg">
<path d="M146.449 13C110.044 45.3594 88.2226 107.583 71.7174 152.973C44.5442 227.699 163.669 292.545 215.842 319.635C277.514 351.657 307.453 398.57 336.835 458.422C359.514 504.619 393.934 559.018 397.035 611.739C401.065 680.24 385.429 722.883 340.69 774.25C316.746 801.742 299.362 835.59 274.559 861.733C252.135 885.369 223.947 900.265 200.718 922.526C168.231 953.66 122.413 964.382 106.414 1008.82C79.9872 1082.23 90.5591 1161.95 104.931 1236.58C117.88 1303.81 134.441 1361.31 166.021 1422.22C196.371 1480.75 214.049 1543.12 233.042 1606.67C251.157 1667.29 267.079 1728.93 282.27 1790.54C302.222 1871.45 322.601 1957.73 322.601 2041.42C322.601 2170.89 323.986 2298.67 253.207 2412.7C211.029 2480.66 179.7 2554.58 130.435 2617.92C107.129 2647.88 85.6748 2681.94 65.1932 2714C47.851 2741.14 37.6651 2773.51 13 2794.07" stroke="#FCEC60" stroke-width="25" stroke-linecap="round"/>
</svg>
