<svg width="22" height="22" viewBox="0 0 22 22" fill="none" xmlns="http://www.w3.org/2000/svg">
<g id="Notepad">
<path id="Vector" d="M8.25 11H13.75" stroke="black" stroke-linecap="round" stroke-linejoin="round"/>
<path id="Vector_2" d="M8.25 13.75H13.75" stroke="black" stroke-linecap="round" stroke-linejoin="round"/>
<path id="Vector_3" d="M4.8125 3.4375H17.1875C17.3698 3.4375 17.5447 3.50993 17.6736 3.63886C17.8026 3.7678 17.875 3.94266 17.875 4.125V17.1875C17.875 17.7345 17.6577 18.2591 17.2709 18.6459C16.8841 19.0327 16.3595 19.25 15.8125 19.25H6.1875C5.64049 19.25 5.11589 19.0327 4.72909 18.6459C4.3423 18.2591 4.125 17.7345 4.125 17.1875V4.125C4.125 3.94266 4.19743 3.7678 4.32636 3.63886C4.4553 3.50993 4.63016 3.4375 4.8125 3.4375V3.4375Z" stroke="black" stroke-linecap="round" stroke-linejoin="round"/>
<path id="Vector_4" d="M6.875 2.0625V4.8125" stroke="black" stroke-linecap="round" stroke-linejoin="round"/>
<path id="Vector_5" d="M11 2.0625V4.8125" stroke="black" stroke-linecap="round" stroke-linejoin="round"/>
<path id="Vector_6" d="M15.125 2.0625V4.8125" stroke="black" stroke-linecap="round" stroke-linejoin="round"/>
</g>
</svg>
