<svg width="26" height="26" viewBox="0 0 26 26" fill="none" xmlns="http://www.w3.org/2000/svg">
<g id="WhatsappLogo">
<path id="Vector" d="M4.61097 17.9765C3.40124 15.9355 2.9781 13.5232 3.42097 11.1923C3.86384 8.86143 5.14227 6.77236 7.01625 5.31729C8.89024 3.86221 11.2309 3.14119 13.5988 3.28959C15.9667 3.43799 18.1991 4.4456 19.8767 6.12325C21.5544 7.80091 22.562 10.0332 22.7104 12.4012C22.8588 14.7691 22.1378 17.1097 20.6827 18.9837C19.2276 20.8577 17.1386 22.1361 14.8077 22.579C12.4768 23.0219 10.0645 22.5987 8.02347 21.389V21.389L4.65159 22.3437C4.51344 22.3841 4.36697 22.3866 4.22753 22.3509C4.08808 22.3153 3.9608 22.2427 3.85902 22.141C3.75724 22.0392 3.68472 21.9119 3.64905 21.7725C3.61338 21.633 3.61588 21.4865 3.65628 21.3484L4.61097 17.9765Z" stroke="black" stroke-width="1.5" stroke-linecap="round" stroke-linejoin="round"/>
<path id="Vector_2" d="M15.4477 18.6875C14.3786 18.6902 13.3195 18.4816 12.3313 18.0737C11.3431 17.6658 10.4452 17.0667 9.68928 16.3108C8.93333 15.5548 8.3342 14.6569 7.92632 13.6687C7.51844 12.6805 7.30985 11.6214 7.31253 10.5524C7.31521 9.79992 7.61601 9.07921 8.14902 8.54809C8.68204 8.01698 9.40382 7.71877 10.1563 7.71877V7.71877C10.2804 7.71778 10.4025 7.75027 10.5098 7.81283C10.617 7.87538 10.7054 7.96569 10.7657 8.07424L11.9539 10.1461C12.0246 10.2721 12.0609 10.4144 12.0591 10.5588C12.0573 10.7032 12.0175 10.8446 11.9438 10.9688L10.9891 12.5633C11.4781 13.6511 12.3489 14.522 13.4367 15.011L15.0313 14.0563C15.1554 13.9825 15.2968 13.9428 15.4412 13.941C15.5857 13.9392 15.728 13.9755 15.8539 14.0461L17.9258 15.2344C18.0344 15.2946 18.1247 15.383 18.1872 15.4903C18.2498 15.5975 18.2823 15.7196 18.2813 15.8438C18.2786 16.5954 17.9795 17.3156 17.449 17.8481C16.9185 18.3805 16.1993 18.6822 15.4477 18.6875V18.6875Z" stroke="black" stroke-width="1.5" stroke-linecap="round" stroke-linejoin="round"/>
</g>
</svg>
